<svg width="705" height="227" viewBox="0 0 705 227" fill="none" xmlns="http://www.w3.org/2000/svg">
<path d="M12.316 1C-2.15595 55.5 -30.6774 158.6 168.213 167C367.104 175.4 655.965 157.5 703 226" stroke="#2E85EC" stroke-width="3"/>
</svg>
<svg width="719" height="1446" viewBox="0 0 719 1446" fill="none" xmlns="http://www.w3.org/2000/svg">
<path d="M12.316 1C-2.15595 55.5 -30.6774 158.6 168.213 167C367.104 175.4 655.965 157.5 703 226" stroke="#2E85EC" stroke-width="3"/>
<path d="M705.567 271C728.614 324.524 727.297 450.166 600.209 488.478C473.121 526.79 189.313 425.939 134 502" stroke="#2E85EC" stroke-width="3"/>
<path d="M109.855 534C88.331 574.633 79.8519 655.302 131.378 710.874C182.904 766.446 235.735 767.641 284 749.715" stroke="#2E85EC" stroke-width="3"/>
<path d="M303.244 774C320.653 825.204 245.447 922.833 367.309 913.275C489.17 903.717 416.75 1008.86 579 985.644" stroke="#2E85EC" stroke-width="3"/>
<path d="M599.593 1006C650.055 1175.7 329.732 1008.91 367.03 1166" stroke="#2E85EC" stroke-width="3"/>
<path d="M358.066 1193C314.5 1283 101.5 1149.5 109 1250" stroke="#2E85EC" stroke-width="3"/>
<path d="M100.461 1277C86.2363 1398.55 132.705 1461.56 265 1439.73" stroke="#2E85EC" stroke-width="3"/>
</svg>
