<svg width="36" height="36" viewBox="0 0 36 36" fill="none" xmlns="http://www.w3.org/2000/svg">
<path d="M32.5645 13.0645C34.4395 11.1895 33.5845 8.99953 32.5645 7.93453L28.0645 3.43453C26.1745 1.55953 23.9995 2.41453 22.9345 3.43453L20.3845 5.99953H16.4995C13.6495 5.99953 11.9995 7.49953 11.1595 9.22453L4.49953 15.8845V21.8845L3.43453 22.9345C1.55953 24.8245 2.41453 26.9995 3.43453 28.0645L7.93453 32.5645C8.74453 33.3745 9.61453 33.6745 10.4395 33.6745C11.5045 33.6745 12.4795 33.1495 13.0645 32.5645L17.1145 28.4995H22.4995C25.0495 28.4995 26.3395 26.9095 26.8045 25.3495C28.4995 24.8995 29.4295 23.6095 29.8045 22.3495C32.1295 21.7495 32.9995 19.5445 32.9995 17.9995V13.4995H32.1145L32.5645 13.0645ZM29.9995 17.9995C29.9995 18.6745 29.7145 19.4995 28.4995 19.4995H26.9995V20.9995C26.9995 21.6745 26.7145 22.4995 25.4995 22.4995H23.9995V23.9995C23.9995 24.6745 23.7145 25.4995 22.4995 25.4995H15.8845L10.9645 30.4195C10.4995 30.8545 10.2295 30.5995 10.0645 30.4345L5.57953 25.9645C5.14453 25.4995 5.39953 25.2295 5.56453 25.0645L7.49953 23.1145V17.1145L10.4995 14.1145V16.4995C10.4995 18.3145 11.6995 20.9995 14.9995 20.9995C18.2995 20.9995 19.4995 18.3145 19.4995 16.4995H29.9995V17.9995ZM30.4345 10.9345L27.8845 13.4995H16.4995V16.4995C16.4995 17.1745 16.2145 17.9995 14.9995 17.9995C13.7845 17.9995 13.4995 17.1745 13.4995 16.4995V11.9995C13.4995 11.3095 13.7545 8.99953 16.4995 8.99953H21.6145L25.0345 5.57953C25.4995 5.14453 25.7695 5.39953 25.9345 5.56453L30.4195 10.0345C30.8545 10.4995 30.5995 10.7695 30.4345 10.9345Z" fill="#2E85EC"/>
</svg>
