<svg width="84" height="54" viewBox="0 0 84 54" fill="none" xmlns="http://www.w3.org/2000/svg">
<rect width="84" height="54" rx="10" fill="#BCBCBC"/>
<path d="M49 26.4798C48.7348 26.4798 48.4804 26.5852 48.2929 26.7727C48.1054 26.9603 48 27.2146 48 27.4798V29.8698L46.5 28.3898C45.973 27.8838 45.2706 27.6012 44.54 27.6012C43.8094 27.6012 43.107 27.8838 42.58 28.3898L41.88 29.0898L39.39 26.5998C38.8691 26.082 38.1645 25.7913 37.43 25.7913C36.6955 25.7913 35.9909 26.082 35.47 26.5998L34 28.0898V22.4798C34 22.2146 34.1054 21.9603 34.2929 21.7727C34.4804 21.5852 34.7348 21.4798 35 21.4798H41C41.2652 21.4798 41.5196 21.3745 41.7071 21.1869C41.8946 20.9994 42 20.7451 42 20.4798C42 20.2146 41.8946 19.9603 41.7071 19.7727C41.5196 19.5852 41.2652 19.4798 41 19.4798H35C34.2044 19.4798 33.4413 19.7959 32.8787 20.3585C32.3161 20.9211 32 21.6842 32 22.4798V34.4798C32 35.2755 32.3161 36.0385 32.8787 36.6012C33.4413 37.1638 34.2044 37.4798 35 37.4798H47C47.7956 37.4798 48.5587 37.1638 49.1213 36.6012C49.6839 36.0385 50 35.2755 50 34.4798V27.4798C50 27.2146 49.8946 26.9603 49.7071 26.7727C49.5196 26.5852 49.2652 26.4798 49 26.4798ZM35 35.4798C34.7348 35.4798 34.4804 35.3745 34.2929 35.1869C34.1054 34.9994 34 34.7451 34 34.4798V30.9198L36.88 27.9998C36.9527 27.9248 37.0398 27.8652 37.1359 27.8245C37.2321 27.7838 37.3355 27.7628 37.44 27.7628C37.5445 27.7628 37.6479 27.7838 37.7441 27.8245C37.8402 27.8652 37.9273 27.9248 38 27.9998L41.17 31.1698L45.43 35.4298L35 35.4798ZM48 34.4798C47.9965 34.6725 47.9375 34.86 47.83 35.0198L43.29 30.4998L43.99 29.8098C44.1362 29.6645 44.3339 29.5829 44.54 29.5829C44.7461 29.5829 44.9438 29.6645 45.09 29.8098L48 32.6998V34.4798ZM51.72 19.2298L49.3 16.8098C49.1126 16.6236 48.8592 16.519 48.595 16.519C48.3308 16.519 48.0774 16.6236 47.89 16.8098L43.31 21.3898C43.2137 21.4816 43.1367 21.5917 43.0835 21.7136C43.0302 21.8355 43.0018 21.9668 43 22.0998V24.5198C43 24.7851 43.1054 25.0394 43.2929 25.2269C43.4804 25.4145 43.7348 25.5198 44 25.5198H46.42C46.6823 25.5187 46.9337 25.4146 47.12 25.2298L51.7 20.6498C51.795 20.5582 51.871 20.4486 51.9235 20.3275C51.976 20.2064 52.004 20.076 52.0058 19.944C52.0077 19.812 51.9834 19.6809 51.9343 19.5583C51.8853 19.4358 51.8124 19.3241 51.72 19.2298ZM46 23.5198H45V22.5198L48.6 18.9298L49.6 19.9298L46 23.5198Z" fill="#626262"/>
</svg>
