<svg width="24" height="24" viewBox="0 0 24 24" fill="none" xmlns="http://www.w3.org/2000/svg">
<path d="M7.0003 10.5892L11.2903 14.8292C11.3833 14.9229 11.4939 14.9973 11.6157 15.0481C11.7376 15.0989 11.8683 15.125 12.0003 15.125C12.1323 15.125 12.263 15.0989 12.3849 15.0481C12.5067 14.9973 12.6173 14.9229 12.7103 14.8292L16.9503 10.5892C17.044 10.4962 17.1184 10.3856 17.1692 10.2638C17.22 10.1419 17.2461 10.0112 17.2461 9.8792C17.2461 9.74719 17.22 9.61648 17.1692 9.49463C17.1184 9.37277 17.044 9.26217 16.9503 9.1692C16.7629 8.98295 16.5095 8.87841 16.2453 8.87841C15.9811 8.87841 15.7277 8.98295 15.5403 9.1692L12.0003 12.7092L8.4603 9.1692C8.27404 8.98446 8.02264 8.88031 7.7603 8.8792C7.62869 8.87844 7.49823 8.90366 7.37639 8.95343C7.25455 9.00319 7.14374 9.07652 7.0503 9.1692C6.95322 9.25882 6.87487 9.36678 6.81976 9.48686C6.76465 9.60694 6.73389 9.73674 6.72924 9.86878C6.72459 10.0008 6.74615 10.1325 6.79267 10.2561C6.8392 10.3798 6.90976 10.493 7.0003 10.5892Z" fill="#282828"/>
</svg>
