<svg width="35" height="35" viewBox="0 0 35 35" fill="none" xmlns="http://www.w3.org/2000/svg">
<g clip-path="url(#clip0_1918_8659)">
<path d="M5.83398 29.1665H11.6673L26.9798 13.854C27.3628 13.4709 27.6667 13.0162 27.874 12.5158C28.0813 12.0153 28.1879 11.479 28.1879 10.9373C28.1879 10.3956 28.0813 9.85924 27.874 9.3588C27.6667 8.85836 27.3628 8.40365 26.9798 8.02062C26.5968 7.6376 26.1421 7.33377 25.6416 7.12648C25.1412 6.91919 24.6048 6.8125 24.0632 6.8125C23.5215 6.8125 22.9851 6.91919 22.4847 7.12648C21.9842 7.33377 21.5295 7.6376 21.1465 8.02062L5.83398 23.3331V29.1665Z" stroke="#626262" stroke-width="2" stroke-linecap="round" stroke-linejoin="round"/>
<path d="M19.6875 9.47852L25.5208 15.3118" stroke="#626262" stroke-width="2" stroke-linecap="round" stroke-linejoin="round"/>
<path d="M27.709 23.334V27.709" stroke="#626262" stroke-width="2" stroke-linecap="round" stroke-linejoin="round"/>
<path d="M27.709 32.084V32.0986" stroke="#626262" stroke-width="2" stroke-linecap="round" stroke-linejoin="round"/>
</g>
<defs>
<clipPath id="clip0_1918_8659">
<rect width="35" height="35" fill="white"/>
</clipPath>
</defs>
</svg>
