<svg width="12" height="12" viewBox="0 0 8 7"  xmlns="http://www.w3.org/2000/svg">
<path d="M4.58268 3.49935L7.20768 0.874349C7.37435 0.707682 7.37435 0.457682 7.20768 0.291016C7.04102 0.124349 6.79102 0.124349 6.62435 0.291016L3.99935 2.91602L1.37435 0.291016C1.20768 0.124349 0.957682 0.124349 0.791016 0.291016C0.624349 0.457682 0.624349 0.707682 0.791016 0.874349L3.41602 3.49935L0.791016 6.12435C0.707682 6.20768 0.666016 6.29102 0.666016 6.41602C0.666016 6.66602 0.832682 6.83268 1.08268 6.83268C1.20768 6.83268 1.29102 6.79102 1.37435 6.70768L3.99935 4.08268L6.62435 6.70768C6.70768 6.79102 6.79102 6.83268 6.91602 6.83268C7.04102 6.83268 7.12435 6.79102 7.20768 6.70768C7.37435 6.54102 7.37435 6.29102 7.20768 6.12435L4.58268 3.49935Z" fill="#626262"/>
</svg>
