<svg width="279" height="155" viewBox="0 0 279 155" fill="none" xmlns="http://www.w3.org/2000/svg">
<g clip-path="url(#clip0_521_8151)">
<path d="M277.925 132.913C245.88 184.91 154.505 129.982 153.595 76.2621C152.684 22.5428 188.393 47.7508 168.861 81.273C153.595 107.474 105.586 102.799 81.9325 79.9538" stroke="#2E85EC" stroke-width="3" stroke-linecap="round"/>
<path d="M68.8539 49.3594C65.4602 51.7921 61.9611 54.4208 58.3293 57.3022C55.8892 61.3745 53.6761 65.2871 51.644 69.0672C48.1203 67.1511 44.5626 64.9482 41.0334 62.3999C26.5727 51.9728 16.7126 35.0994 18.571 17.5985C34.7713 14.4195 51.1925 23.7794 61.9031 38.501C64.5216 42.08 66.8138 45.7315 68.848 49.3658L68.8539 49.3594Z" fill="white" stroke="black" stroke-width="2.17" stroke-linecap="round" stroke-linejoin="round"/>
<path d="M47.3747 74.4656C46.2968 77.3007 42.6392 77.6327 41.3539 74.9982C38.451 69.0464 36.3168 62.7278 35.097 56.1631C35.3476 56.3647 35.5803 56.5733 35.8308 56.7749C40.6975 60.6671 45.5399 64.1367 50.2845 67.2668C49.2406 69.7132 48.2708 72.1128 47.3747 74.4656Z" fill="black"/>
<path d="M56.1451 33.3395C55.9398 33.0862 55.7291 32.8518 55.5237 32.5986C61.7343 33.4504 67.7782 35.2944 73.5313 37.9835C76.0783 39.1738 76.024 43.091 73.4458 44.4402C71.3111 45.5566 69.1377 46.7551 66.9256 48.0355C63.6798 43.1898 60.1049 38.2696 56.1392 33.3459L56.1451 33.3395Z" fill="black"/>
<path d="M55.8715 54.965C56.8445 54.306 57.8239 53.6649 58.7803 53.0371C57.8126 53.6655 56.8445 54.306 55.8715 54.965Z" fill="#2E85EC"/>
<path d="M55.893 54.9541C55.3452 56.0386 54.8206 57.1218 54.2953 58.1931C54.8093 57.1224 55.3398 56.0449 55.893 54.9541Z" fill="#2E85EC"/>
<path d="M64.3995 63.5033L45.8232 44.8398" stroke="#2E85EC" stroke-width="2.17"/>
<path d="M75.7165 74.8727L69.4871 68.6143" stroke="#2E85EC" stroke-width="2.17"/>
<path d="M68.8926 76.6267L62.6691 70.374" stroke="#2E85EC" stroke-width="2.17"/>
<path d="M76.8707 67.4352L70.6472 61.1826" stroke="#2E85EC" stroke-width="2.17"/>
<path d="M28.493 31.0228C29.5574 32.1688 31.2685 32.1811 32.3151 31.0557C33.3618 29.9304 33.3494 28.0871 32.2872 26.9436C31.2249 25.8 29.5117 25.7853 28.465 26.9106C27.4184 28.036 27.4307 29.8792 28.493 31.0228Z" fill="#2E85EC"/>
<path d="M35.018 38.0482C36.0824 39.1942 37.7935 39.2065 38.8401 38.0811C39.8868 36.9558 39.8744 35.1125 38.8122 33.969C37.7499 32.8254 36.0367 32.8107 34.99 33.936C33.9434 35.0614 33.9557 36.9046 35.018 38.0482Z" fill="#2E85EC"/>
<path d="M33.9331 31.3439L34.8078 27.7378C35.3195 25.6234 37.7768 24.9359 39.2282 26.4989C40.6802 28.0618 40.0394 30.7048 38.0735 31.2538L34.7212 32.1924C34.2482 32.3262 33.8084 31.8532 33.931 31.3415" fill="#2E85EC"/>
<path d="M33.3735 33.6468L32.4989 37.2529C31.9871 39.3673 29.5304 40.0548 28.0784 38.4919C26.627 36.929 27.2673 34.2859 29.2332 33.7369L32.5855 32.7983C33.0591 32.6646 33.4983 33.1375 33.3757 33.6493" fill="#2E85EC"/>
</g>
<defs>
<clipPath id="clip0_521_8151">
<rect width="279" height="155" fill="white" transform="matrix(-1 0 0 1 279 0)"/>
</clipPath>
</defs>
</svg>
