<svg width="221" height="178" viewBox="0 0 221 178" fill="none" xmlns="http://www.w3.org/2000/svg">
<g clip-path="url(#clip0_521_8166)">
<path d="M-97.7668 152.635C-61.0128 212.348 43.7903 149.269 44.8342 87.5777C45.8786 25.8872 4.92232 54.8356 27.3242 93.3322C44.8342 123.421 99.8982 118.052 127.027 91.8172" stroke="#2E85EC" stroke-width="3" stroke-linecap="round"/>
<path d="M142.028 56.6838C145.92 59.4775 149.933 62.4963 154.099 65.8052C156.898 70.4818 159.436 74.975 161.767 79.3161C165.808 77.1157 169.889 74.5858 173.937 71.6594C190.522 59.685 201.831 40.3078 199.7 20.21C181.119 16.5593 162.285 27.3081 150 44.2141C146.997 48.3243 144.368 52.5176 142.035 56.6912L142.028 56.6838Z" fill="white" stroke="black" stroke-width="2.17" stroke-linecap="round" stroke-linejoin="round"/>
<path d="M166.664 85.5154C167.9 88.7712 172.095 89.1525 173.569 86.1271C176.899 79.2921 179.346 72.0359 180.745 64.4971C180.458 64.7286 180.191 64.9682 179.904 65.1997C174.322 69.6694 168.768 73.6538 163.326 77.2484C164.523 80.0579 165.636 82.8135 166.664 85.5154Z" fill="black"/>
<path d="M156.604 38.2863C156.84 37.9955 157.081 37.7263 157.317 37.4355C150.194 38.4137 143.262 40.5313 136.663 43.6195C133.742 44.9863 133.804 49.4848 136.761 51.0343C139.209 52.3163 141.702 53.6927 144.239 55.163C147.962 49.5983 152.062 43.948 156.611 38.2937L156.604 38.2863Z" fill="black"/>
<path d="M156.918 63.1211C155.802 62.3644 154.679 61.6282 153.582 60.9072C154.692 61.6289 155.802 62.3644 156.918 63.1211Z" fill="#2E85EC"/>
<path d="M156.893 63.1084C157.522 64.3538 158.123 65.5977 158.726 66.8281C158.136 65.5985 157.528 64.3611 156.893 63.1084Z" fill="#2E85EC"/>
<path d="M147.137 72.927L168.443 51.4941" stroke="#2E85EC" stroke-width="2.17"/>
<path d="M134.157 85.983L141.302 78.7959" stroke="#2E85EC" stroke-width="2.17"/>
<path d="M141.983 87.9968L149.121 80.8164" stroke="#2E85EC" stroke-width="2.17"/>
<path d="M132.833 77.4412L139.971 70.2607" stroke="#2E85EC" stroke-width="2.17"/>
<path d="M188.32 35.6269C187.099 36.943 185.137 36.9571 183.936 35.6648C182.736 34.3724 182.75 32.2557 183.968 30.9424C185.187 29.6292 187.152 29.6122 188.352 30.9046C189.552 32.1969 189.538 34.3136 188.32 35.6269Z" fill="#2E85EC"/>
<path d="M180.836 43.6943C179.615 45.0104 177.653 45.0245 176.452 43.7321C175.252 42.4398 175.266 40.323 176.484 39.0098C177.703 37.6965 179.668 37.6796 180.868 38.972C182.068 40.2643 182.054 42.381 180.836 43.6943Z" fill="#2E85EC"/>
<path d="M182.08 35.995L181.077 31.8538C180.49 29.4256 177.672 28.6361 176.007 30.431C174.342 32.2259 175.077 35.261 177.331 35.8916L181.176 36.9694C181.719 37.1231 182.223 36.5798 182.083 35.9922" fill="#2E85EC"/>
<path d="M182.722 38.6394L183.725 42.7806C184.312 45.2088 187.13 45.9983 188.795 44.2035C190.46 42.4086 189.726 39.3734 187.471 38.7429L183.626 37.665C183.083 37.5114 182.579 38.0546 182.72 38.6422" fill="#2E85EC"/>
</g>
<defs>
<clipPath id="clip0_521_8166">
<rect width="320" height="178" fill="white" transform="translate(-99)"/>
</clipPath>
</defs>
</svg>
