<svg width="287" height="178" viewBox="0 0 287 178" fill="none" xmlns="http://www.w3.org/2000/svg">
<g clip-path="url(#clip0_47_367)">
<path d="M-31.7668 152.635C4.98716 212.348 109.79 149.269 110.834 87.5777C111.879 25.8872 70.9223 54.8356 93.3242 93.3322C110.834 123.421 165.898 118.052 193.027 91.8172" stroke="#2E85EC" stroke-width="3" stroke-linecap="round"/>
<path d="M208.028 56.6838C211.92 59.4775 215.933 62.4963 220.099 65.8052C222.898 70.4818 225.436 74.975 227.767 79.3161C231.808 77.1157 235.889 74.5858 239.937 71.6594C256.522 59.685 267.831 40.3078 265.7 20.21C247.119 16.5593 228.285 27.3081 216 44.2141C212.997 48.3243 210.368 52.5176 208.035 56.6912L208.028 56.6838Z" fill="white" stroke="black" stroke-width="2.17" stroke-linecap="round" stroke-linejoin="round"/>
<path d="M232.664 85.5154C233.9 88.7712 238.095 89.1525 239.569 86.1271C242.899 79.2921 245.346 72.0359 246.745 64.4971C246.458 64.7286 246.191 64.9682 245.904 65.1997C240.322 69.6694 234.768 73.6538 229.326 77.2484C230.523 80.0579 231.636 82.8135 232.664 85.5154Z" fill="black"/>
<path d="M222.604 38.2863C222.84 37.9955 223.081 37.7263 223.317 37.4355C216.194 38.4137 209.262 40.5313 202.663 43.6195C199.742 44.9863 199.804 49.4848 202.761 51.0343C205.209 52.3163 207.702 53.6927 210.239 55.163C213.962 49.5983 218.062 43.948 222.611 38.2937L222.604 38.2863Z" fill="black"/>
<path d="M222.918 63.1211C221.802 62.3644 220.679 61.6282 219.582 60.9072C220.692 61.6289 221.802 62.3644 222.918 63.1211Z" fill="#2E85EC"/>
<path d="M222.893 63.1084C223.522 64.3538 224.123 65.5977 224.726 66.8281C224.136 65.5985 223.528 64.3611 222.893 63.1084Z" fill="#2E85EC"/>
<path d="M213.137 72.927L234.443 51.4941" stroke="#2E85EC" stroke-width="2.17"/>
<path d="M200.157 85.983L207.302 78.7959" stroke="#2E85EC" stroke-width="2.17"/>
<path d="M207.983 87.9968L215.121 80.8164" stroke="#2E85EC" stroke-width="2.17"/>
<path d="M198.833 77.4412L205.971 70.2607" stroke="#2E85EC" stroke-width="2.17"/>
<path d="M254.32 35.6269C253.099 36.943 251.137 36.9571 249.936 35.6648C248.736 34.3724 248.75 32.2557 249.968 30.9424C251.187 29.6292 253.152 29.6122 254.352 30.9046C255.552 32.1969 255.538 34.3136 254.32 35.6269Z" fill="#2E85EC"/>
<path d="M246.836 43.6943C245.615 45.0104 243.653 45.0245 242.452 43.7321C241.252 42.4398 241.266 40.323 242.484 39.0098C243.703 37.6965 245.668 37.6796 246.868 38.972C248.068 40.2643 248.054 42.381 246.836 43.6943Z" fill="#2E85EC"/>
<path d="M248.08 35.995L247.077 31.8538C246.49 29.4256 243.672 28.6361 242.007 30.431C240.342 32.2259 241.077 35.261 243.331 35.8916L247.176 36.9694C247.719 37.1231 248.223 36.5798 248.083 35.9922" fill="#2E85EC"/>
<path d="M248.722 38.6394L249.725 42.7806C250.312 45.2088 253.13 45.9983 254.795 44.2035C256.46 42.4086 255.726 39.3734 253.471 38.7429L249.626 37.665C249.083 37.5114 248.579 38.0546 248.72 38.6422" fill="#2E85EC"/>
</g>
<defs>
<clipPath id="clip0_47_367">
<rect width="320" height="178" fill="white" transform="translate(-33)"/>
</clipPath>
</defs>
</svg>
