<svg width="36" height="36" viewBox="0 0 36 36" fill="none" xmlns="http://www.w3.org/2000/svg">
<path d="M9.375 6C8.47989 6 7.62145 6.35558 6.98851 6.98851C6.35558 7.62145 6 8.47989 6 9.375V20.625C6 21.5201 6.35558 22.3785 6.98851 23.0115C7.62145 23.6444 8.47989 24 9.375 24H24.075C23.4391 23.3772 22.972 22.6029 22.7175 21.75H9.375C9.07663 21.75 8.79048 21.6315 8.5795 21.4205C8.36853 21.2095 8.25 20.9234 8.25 20.625V9.375C8.25 9.07663 8.36853 8.79048 8.5795 8.5795C8.79048 8.36853 9.07663 8.25 9.375 8.25H26.625C26.9234 8.25 27.2095 8.36853 27.4205 8.5795C27.6315 8.79048 27.75 9.07663 27.75 9.375V15C28.5555 15 29.3175 15.18 30 15.5055V9.375C30 8.93179 29.9127 8.49292 29.7431 8.08344C29.5735 7.67397 29.3249 7.30191 29.0115 6.98851C28.6981 6.67512 28.326 6.42652 27.9166 6.25691C27.5071 6.0873 27.0682 6 26.625 6H9.375ZM4.125 26.25H19.962C19.6573 26.8398 19.4988 27.4942 19.5 28.158V28.3125C19.5 28.3755 19.501 28.438 19.503 28.5H4.125C3.82663 28.5 3.54048 28.3815 3.3295 28.1705C3.11853 27.9595 3 27.6734 3 27.375C3 27.0766 3.11853 26.7905 3.3295 26.5795C3.54048 26.3685 3.82663 26.25 4.125 26.25ZM31.5 20.25C31.5 21.2446 31.1049 22.1984 30.4016 22.9016C29.6984 23.6049 28.7446 24 27.75 24C26.7554 24 25.8016 23.6049 25.0984 22.9016C24.3951 22.1984 24 21.2446 24 20.25C24 19.2554 24.3951 18.3016 25.0984 17.5983C25.8016 16.8951 26.7554 16.5 27.75 16.5C28.7446 16.5 29.6984 16.8951 30.4016 17.5983C31.1049 18.3016 31.5 19.2554 31.5 20.25ZM34.5 28.3125C34.5 30.6465 32.571 33 27.75 33C22.929 33 21 30.6555 21 28.3125V28.158C21 26.688 22.191 25.5 23.6595 25.5H31.8405C33.3105 25.5 34.5 26.6895 34.5 28.158V28.3125Z" fill="#2E85EC"/>
</svg>
