<svg width="24" height="24" viewBox="0 0 24 24" fill="none" xmlns="http://www.w3.org/2000/svg">
<path d="M8.45929 12.7105L14.1193 18.3605C14.2122 18.4542 14.3228 18.5286 14.4447 18.5793C14.5666 18.6301 14.6973 18.6562 14.8293 18.6562C14.9613 18.6562 15.092 18.6301 15.2139 18.5793C15.3357 18.5286 15.4463 18.4542 15.5393 18.3605C15.7255 18.1731 15.8301 17.9196 15.8301 17.6555C15.8301 17.3913 15.7255 17.1378 15.5393 16.9505L10.5893 11.9505L15.5393 7.00045C15.7255 6.81309 15.8301 6.55964 15.8301 6.29545C15.8301 6.03127 15.7255 5.77781 15.5393 5.59045C15.4467 5.49596 15.3362 5.42079 15.2144 5.3693C15.0925 5.3178 14.9616 5.291 14.8293 5.29045C14.697 5.291 14.5661 5.3178 14.4442 5.3693C14.3223 5.42079 14.2119 5.49596 14.1193 5.59045L8.45929 11.2405C8.35778 11.3341 8.27677 11.4477 8.22137 11.5742C8.16596 11.7007 8.13735 11.8373 8.13735 11.9755C8.13735 12.1136 8.16596 12.2502 8.22137 12.3767C8.27677 12.5032 8.35778 12.6168 8.45929 12.7105Z" fill="#2E85EC"/>
</svg>
