<svg width="24" height="24" viewBox="0 0 24 24" fill="none" xmlns="http://www.w3.org/2000/svg">
<path d="M15.5407 11.2895L9.88071 5.63955C9.78775 5.54582 9.67715 5.47143 9.55529 5.42066C9.43343 5.36989 9.30273 5.34375 9.17071 5.34375C9.0387 5.34375 8.908 5.36989 8.78614 5.42066C8.66428 5.47143 8.55368 5.54582 8.46071 5.63955C8.27446 5.82691 8.16992 6.08036 8.16992 6.34455C8.16992 6.60873 8.27446 6.86219 8.46071 7.04955L13.4107 12.0495L8.46071 16.9995C8.27446 17.1869 8.16992 17.4404 8.16992 17.7045C8.16992 17.9687 8.27446 18.2222 8.46071 18.4095C8.55333 18.504 8.66377 18.5792 8.78565 18.6307C8.90752 18.6822 9.03841 18.709 9.17071 18.7095C9.30302 18.709 9.4339 18.6822 9.55578 18.6307C9.67765 18.5792 9.7881 18.504 9.88071 18.4095L15.5407 12.7595C15.6422 12.6659 15.7232 12.5523 15.7786 12.4258C15.834 12.2993 15.8626 12.1627 15.8626 12.0245C15.8626 11.8864 15.834 11.7498 15.7786 11.6233C15.7232 11.4968 15.6422 11.3832 15.5407 11.2895Z" fill="#2E85EC"/>
</svg>
