<svg width="36" height="36" viewBox="0 0 36 36" fill="none" xmlns="http://www.w3.org/2000/svg">
<path d="M17.25 6C15.8576 6 14.5223 6.55312 13.5377 7.53769C12.5531 8.52226 12 9.85761 12 11.25C12 12.6424 12.5531 13.9777 13.5377 14.9623C14.5223 15.9469 15.8576 16.5 17.25 16.5C18.6424 16.5 19.9777 15.9469 20.9623 14.9623C21.9469 13.9777 22.5 12.6424 22.5 11.25C22.5 9.85761 21.9469 8.52226 20.9623 7.53769C19.9777 6.55312 18.6424 6 17.25 6ZM9 11.25C9 9.06196 9.86919 6.96354 11.4164 5.41637C12.9635 3.86919 15.062 3 17.25 3C19.438 3 21.5365 3.86919 23.0836 5.41637C24.6308 6.96354 25.5 9.06196 25.5 11.25C25.5 13.438 24.6308 15.5365 23.0836 17.0836C21.5365 18.6308 19.438 19.5 17.25 19.5C15.062 19.5 12.9635 18.6308 11.4164 17.0836C9.86919 15.5365 9 13.438 9 11.25ZM27 21.75C25.6076 21.75 24.2723 22.3031 23.2877 23.2877C22.3031 24.2723 21.75 25.6076 21.75 27C21.75 28.3924 22.3031 29.7277 23.2877 30.7123C24.2723 31.6969 25.6076 32.25 27 32.25C28.3924 32.25 29.7277 31.6969 30.7123 30.7123C31.6969 29.7277 32.25 28.3924 32.25 27C32.25 25.6076 31.6969 24.2723 30.7123 23.2877C29.7277 22.3031 28.3924 21.75 27 21.75ZM18.75 27C18.75 25.9166 18.9634 24.8438 19.378 23.8429C19.7926 22.8419 20.4003 21.9325 21.1664 21.1664C21.9325 20.4003 22.8419 19.7926 23.8429 19.378C24.8438 18.9634 25.9166 18.75 27 18.75C28.0834 18.75 29.1562 18.9634 30.1571 19.378C31.1581 19.7926 32.0675 20.4003 32.8336 21.1664C33.5997 21.9325 34.2074 22.8419 34.622 23.8429C35.0366 24.8438 35.25 25.9166 35.25 27C35.25 29.188 34.3808 31.2865 32.8336 32.8336C31.2865 34.3808 29.188 35.25 27 35.25C24.812 35.25 22.7135 34.3808 21.1664 32.8336C19.6192 31.2865 18.75 29.188 18.75 27ZM12 24C10.4087 24 8.88258 24.6321 7.75736 25.7574C6.63214 26.8826 6 28.4087 6 30H16.575V33H3V30C3 27.6131 3.94821 25.3239 5.63604 23.636C7.32387 21.9482 9.61305 21 12 21H16.5V24H12ZM28.5 23.628V26.379L30.621 28.5L28.5 30.621L25.5 27.621V23.628H28.5Z" fill="#2E85EC"/>
</svg>
