<svg width="705" height="227" viewBox="0 0 705 227" fill="none" xmlns="http://www.w3.org/2000/svg">
<path d="M12.316 1C-2.15595 55.5 -30.6774 158.6 168.213 167C367.104 175.4 655.965 157.5 703 226" stroke="#2E85EC" stroke-width="3"/>
</svg>
<svg width="587" height="233" viewBox="0 0 587 233" fill="none" xmlns="http://www.w3.org/2000/svg">
<path d="M573.567 1C596.614 54.5244 595.297 180.166 468.209 218.478C341.121 256.79 57.313 155.939 2 232" stroke="#2E85EC" stroke-width="3"/>
</svg>
<svg width="194" height="229" viewBox="0 0 194 229" fill="none" xmlns="http://www.w3.org/2000/svg">
<path d="M18.8547 1C-2.66896 41.6333 -11.1481 122.302 40.3783 177.874C91.9044 233.446 144.735 234.641 193 216.715" stroke="#2E85EC" stroke-width="3"/>
</svg>
<svg width="286" height="218" viewBox="0 0 286 218" fill="none" xmlns="http://www.w3.org/2000/svg">
<path d="M9.24408 1C26.6529 52.2041 -48.5533 149.833 73.3086 140.275C195.17 130.717 122.75 235.856 285 212.644" stroke="#2E85EC" stroke-width="3"/>
</svg>
<svg width="245" height="162" viewBox="0 0 245 162" fill="none" xmlns="http://www.w3.org/2000/svg">
<path d="M237.593 1C288.055 170.697 -32.2679 3.90909 5.02999 161" stroke="#2E85EC" stroke-width="3"/>
</svg>
<svg width="253" height="59" viewBox="0 0 253 59" fill="none" xmlns="http://www.w3.org/2000/svg">
<path d="M251.066 1C207.5 91 -5.5 -42.5 1.99993 58" stroke="#2E85EC" stroke-width="3"/>
</svg>
<svg width="170" height="170" viewBox="0 0 170 170" fill="none" xmlns="http://www.w3.org/2000/svg">
<path d="M4.46149 1C-9.76374 122.551 36.7053 185.559 169 163.73" stroke="#2E85EC" stroke-width="3"/>
</svg>